<mxfile>
    <diagram id="3Pf2HogiruGGhZbKJb14" name="Page-1">
        <mxGraphModel dx="1002" dy="607" grid="1" gridSize="10" guides="1" tooltips="1" connect="1" arrows="1" fold="1" page="1" pageScale="1" pageWidth="827" pageHeight="1169" background="#ffffff" math="0" shadow="0">
            <root>
                <mxCell id="0"/>
                <mxCell id="1" parent="0"/>
                <mxCell id="2" value="" style="endArrow=classic;html=1;fillColor=#dae8fc;strokeColor=#6c8ebf;" parent="1" edge="1">
                    <mxGeometry width="50" height="50" relative="1" as="geometry">
                        <mxPoint x="110" y="80" as="sourcePoint"/>
                        <mxPoint x="110" y="520" as="targetPoint"/>
                    </mxGeometry>
                </mxCell>
                <mxCell id="3" value="" style="endArrow=classic;html=1;fillColor=#f8cecc;strokeColor=#b85450;" parent="1" edge="1">
                    <mxGeometry width="50" height="50" relative="1" as="geometry">
                        <mxPoint x="710" y="75" as="sourcePoint"/>
                        <mxPoint x="710" y="515" as="targetPoint"/>
                    </mxGeometry>
                </mxCell>
                <mxCell id="4" value="Transaction A" style="text;html=1;align=center;verticalAlign=middle;resizable=0;points=[];autosize=1;fontColor=#000000;fillColor=#FFFFFF;" parent="1" vertex="1">
                    <mxGeometry x="60" y="50" width="90" height="20" as="geometry"/>
                </mxCell>
                <mxCell id="5" value="Transaction B" style="text;html=1;align=center;verticalAlign=middle;resizable=0;points=[];autosize=1;fontColor=#000000;fillColor=#FFFFFF;" parent="1" vertex="1">
                    <mxGeometry x="660" y="45" width="90" height="20" as="geometry"/>
                </mxCell>
                <mxCell id="7" value="" style="endArrow=classic;html=1;fillColor=#f5f5f5;strokeColor=#666666;" parent="1" edge="1">
                    <mxGeometry width="50" height="50" relative="1" as="geometry">
                        <mxPoint x="410" y="80" as="sourcePoint"/>
                        <mxPoint x="410" y="520" as="targetPoint"/>
                    </mxGeometry>
                </mxCell>
                <mxCell id="8" value="" style="shape=cylinder3;whiteSpace=wrap;html=1;boundedLbl=1;backgroundOutline=1;size=5.8036041259765625;" parent="1" vertex="1">
                    <mxGeometry x="380" y="45" width="60" height="30" as="geometry"/>
                </mxCell>
                <mxCell id="33" value="" style="shape=table;html=1;whiteSpace=wrap;startSize=0;container=1;collapsible=0;childLayout=tableLayout;columnLines=0;rowLines=0;" parent="1" vertex="1">
                    <mxGeometry x="340" y="110" width="140" height="60" as="geometry"/>
                </mxCell>
                <mxCell id="34" value="" style="shape=partialRectangle;html=1;whiteSpace=wrap;collapsible=0;dropTarget=0;pointerEvents=0;fillColor=none;top=0;left=0;bottom=0;right=0;points=[[0,0.5],[1,0.5]];portConstraint=eastwest;" parent="33" vertex="1">
                    <mxGeometry width="140" height="33" as="geometry"/>
                </mxCell>
                <mxCell id="35" value="ID" style="shape=partialRectangle;html=1;whiteSpace=wrap;connectable=0;fillColor=none;top=0;left=0;bottom=0;right=0;overflow=hidden;" parent="34" vertex="1">
                    <mxGeometry width="60" height="33" as="geometry"/>
                </mxCell>
                <mxCell id="36" value="salary" style="shape=partialRectangle;html=1;whiteSpace=wrap;connectable=0;fillColor=none;top=0;left=0;bottom=0;right=0;overflow=hidden;" parent="34" vertex="1">
                    <mxGeometry x="60" width="60" height="33" as="geometry"/>
                </mxCell>
                <mxCell id="37" value="" style="shape=partialRectangle;html=1;whiteSpace=wrap;connectable=0;fillColor=none;top=0;left=0;bottom=0;right=0;overflow=hidden;" parent="34" vertex="1">
                    <mxGeometry x="120" width="20" height="33" as="geometry"/>
                </mxCell>
                <mxCell id="38" value="" style="shape=partialRectangle;html=1;whiteSpace=wrap;collapsible=0;dropTarget=0;pointerEvents=0;fillColor=none;top=0;left=0;bottom=0;right=0;points=[[0,0.5],[1,0.5]];portConstraint=eastwest;" parent="33" vertex="1">
                    <mxGeometry y="33" width="140" height="27" as="geometry"/>
                </mxCell>
                <mxCell id="39" value="01" style="shape=partialRectangle;html=1;whiteSpace=wrap;connectable=0;fillColor=none;top=0;left=0;bottom=0;right=0;overflow=hidden;" parent="38" vertex="1">
                    <mxGeometry width="60" height="27" as="geometry"/>
                </mxCell>
                <mxCell id="40" value="10000" style="shape=partialRectangle;html=1;whiteSpace=wrap;connectable=0;fillColor=none;top=0;left=0;bottom=0;right=0;overflow=hidden;" parent="38" vertex="1">
                    <mxGeometry x="60" width="60" height="27" as="geometry"/>
                </mxCell>
                <mxCell id="41" value="" style="shape=partialRectangle;html=1;whiteSpace=wrap;connectable=0;fillColor=none;top=0;left=0;bottom=0;right=0;overflow=hidden;" parent="38" vertex="1">
                    <mxGeometry x="120" width="20" height="27" as="geometry"/>
                </mxCell>
                <mxCell id="46" value="" style="endArrow=classic;html=1;fillColor=#dae8fc;strokeColor=#6c8ebf;" parent="1" edge="1">
                    <mxGeometry width="50" height="50" relative="1" as="geometry">
                        <mxPoint x="120" y="140" as="sourcePoint"/>
                        <mxPoint x="310" y="140" as="targetPoint"/>
                    </mxGeometry>
                </mxCell>
                <mxCell id="47" value="" style="endArrow=classic;html=1;fillColor=#f8cecc;strokeColor=#b85450;" parent="1" edge="1">
                    <mxGeometry width="50" height="50" relative="1" as="geometry">
                        <mxPoint x="700" y="140" as="sourcePoint"/>
                        <mxPoint x="510" y="140" as="targetPoint"/>
                    </mxGeometry>
                </mxCell>
                <mxCell id="48" value="SELECT ... FOR UPDATE WAIT 10" style="text;html=1;align=center;verticalAlign=middle;resizable=0;points=[];autosize=1;fontColor=#000000;" parent="1" vertex="1">
                    <mxGeometry x="115" y="110" width="200" height="20" as="geometry"/>
                </mxCell>
                <mxCell id="49" value="SELECT ... FOR UPDATE WAIT 10" style="text;html=1;align=center;verticalAlign=middle;resizable=0;points=[];autosize=1;fontColor=#000000;" parent="1" vertex="1">
                    <mxGeometry x="505" y="110" width="200" height="20" as="geometry"/>
                </mxCell>
                <mxCell id="59" value="" style="endArrow=classic;html=1;fillColor=#dae8fc;strokeColor=#6c8ebf;" parent="1" edge="1">
                    <mxGeometry width="50" height="50" relative="1" as="geometry">
                        <mxPoint x="120" y="229.5" as="sourcePoint"/>
                        <mxPoint x="310" y="229.5" as="targetPoint"/>
                    </mxGeometry>
                </mxCell>
                <mxCell id="60" value="UPDATE salaries&lt;br&gt;SET salary = 15000&lt;br&gt;WHERE ID = 1&amp;nbsp;" style="text;align=left;verticalAlign=middle;resizable=0;points=[];autosize=1;fontColor=#000000;html=1;labelBackgroundColor=#ffffff;labelBorderColor=none;" parent="1" vertex="1">
                    <mxGeometry x="45" y="205" width="120" height="50" as="geometry"/>
                </mxCell>
                <mxCell id="70" value="" style="endArrow=classic;html=1;fillColor=#f8cecc;strokeColor=#b85450;" parent="1" edge="1">
                    <mxGeometry width="50" height="50" relative="1" as="geometry">
                        <mxPoint x="700" y="329.5" as="sourcePoint"/>
                        <mxPoint x="510" y="329.5" as="targetPoint"/>
                    </mxGeometry>
                </mxCell>
                <mxCell id="71" value="UPDATE salaries&lt;br&gt;SET salary = 25000&lt;br&gt;WHERE ID = 1" style="text;align=left;verticalAlign=middle;resizable=0;points=[];autosize=1;fontColor=#000000;html=1;labelBackgroundColor=#ffffff;labelBorderColor=none;" parent="1" vertex="1">
                    <mxGeometry x="645" y="310" width="120" height="50" as="geometry"/>
                </mxCell>
                <mxCell id="73" value="待機時間（10秒間）を過ぎても&lt;br&gt;ロックが解放されない場合は&lt;br&gt;タイムアウトになり異常終了" style="rounded=1;whiteSpace=wrap;html=1;labelBackgroundColor=none;align=center;fontColor=#000000;" parent="1" vertex="1">
                    <mxGeometry x="150" y="390" width="210" height="70" as="geometry"/>
                </mxCell>
                <mxCell id="74" value="" style="endArrow=classic;html=1;fillColor=#dae8fc;strokeColor=#6c8ebf;" parent="1" edge="1">
                    <mxGeometry width="50" height="50" relative="1" as="geometry">
                        <mxPoint x="120" y="280" as="sourcePoint"/>
                        <mxPoint x="400" y="280" as="targetPoint"/>
                    </mxGeometry>
                </mxCell>
                <mxCell id="75" value="COMMIT" style="text;html=1;align=center;verticalAlign=middle;resizable=0;points=[];autosize=1;fontColor=#000000;" parent="1" vertex="1">
                    <mxGeometry x="210" y="255" width="60" height="20" as="geometry"/>
                </mxCell>
                <mxCell id="76" value="" style="endArrow=classic;html=1;fillColor=#f8cecc;strokeColor=#b85450;" parent="1" edge="1">
                    <mxGeometry width="50" height="50" relative="1" as="geometry">
                        <mxPoint x="705" y="420" as="sourcePoint"/>
                        <mxPoint x="435" y="420" as="targetPoint"/>
                    </mxGeometry>
                </mxCell>
                <mxCell id="77" value="COMMIT" style="text;html=1;align=center;verticalAlign=middle;resizable=0;points=[];autosize=1;fontColor=#000000;" parent="1" vertex="1">
                    <mxGeometry x="540" y="390" width="60" height="20" as="geometry"/>
                </mxCell>
                <mxCell id="78" value="" style="shape=table;html=1;whiteSpace=wrap;startSize=0;container=1;collapsible=0;childLayout=tableLayout;columnLines=0;rowLines=0;" vertex="1" parent="1">
                    <mxGeometry x="340" y="205" width="140" height="60" as="geometry"/>
                </mxCell>
                <mxCell id="79" value="" style="shape=partialRectangle;html=1;whiteSpace=wrap;collapsible=0;dropTarget=0;pointerEvents=0;fillColor=none;top=0;left=0;bottom=0;right=0;points=[[0,0.5],[1,0.5]];portConstraint=eastwest;" vertex="1" parent="78">
                    <mxGeometry width="140" height="33" as="geometry"/>
                </mxCell>
                <mxCell id="80" value="ID" style="shape=partialRectangle;html=1;whiteSpace=wrap;connectable=0;fillColor=none;top=0;left=0;bottom=0;right=0;overflow=hidden;" vertex="1" parent="79">
                    <mxGeometry width="60" height="33" as="geometry"/>
                </mxCell>
                <mxCell id="81" value="salary" style="shape=partialRectangle;html=1;whiteSpace=wrap;connectable=0;fillColor=none;top=0;left=0;bottom=0;right=0;overflow=hidden;" vertex="1" parent="79">
                    <mxGeometry x="60" width="60" height="33" as="geometry"/>
                </mxCell>
                <mxCell id="82" value="" style="shape=partialRectangle;html=1;whiteSpace=wrap;connectable=0;fillColor=none;top=0;left=0;bottom=0;right=0;overflow=hidden;" vertex="1" parent="79">
                    <mxGeometry x="120" width="20" height="33" as="geometry"/>
                </mxCell>
                <mxCell id="83" value="" style="shape=partialRectangle;html=1;whiteSpace=wrap;collapsible=0;dropTarget=0;pointerEvents=0;fillColor=none;top=0;left=0;bottom=0;right=0;points=[[0,0.5],[1,0.5]];portConstraint=eastwest;" vertex="1" parent="78">
                    <mxGeometry y="33" width="140" height="27" as="geometry"/>
                </mxCell>
                <mxCell id="84" value="01" style="shape=partialRectangle;html=1;whiteSpace=wrap;connectable=0;fillColor=none;top=0;left=0;bottom=0;right=0;overflow=hidden;" vertex="1" parent="83">
                    <mxGeometry width="60" height="27" as="geometry"/>
                </mxCell>
                <mxCell id="85" value="15000" style="shape=partialRectangle;html=1;whiteSpace=wrap;connectable=0;fillColor=none;top=0;left=0;bottom=0;right=0;overflow=hidden;" vertex="1" parent="83">
                    <mxGeometry x="60" width="60" height="27" as="geometry"/>
                </mxCell>
                <mxCell id="86" value="" style="shape=partialRectangle;html=1;whiteSpace=wrap;connectable=0;fillColor=none;top=0;left=0;bottom=0;right=0;overflow=hidden;" vertex="1" parent="83">
                    <mxGeometry x="120" width="20" height="27" as="geometry"/>
                </mxCell>
                <mxCell id="88" value="" style="shape=table;html=1;whiteSpace=wrap;startSize=0;container=1;collapsible=0;childLayout=tableLayout;columnLines=0;rowLines=0;" vertex="1" parent="1">
                    <mxGeometry x="340" y="305" width="140" height="60" as="geometry"/>
                </mxCell>
                <mxCell id="89" value="" style="shape=partialRectangle;html=1;whiteSpace=wrap;collapsible=0;dropTarget=0;pointerEvents=0;fillColor=none;top=0;left=0;bottom=0;right=0;points=[[0,0.5],[1,0.5]];portConstraint=eastwest;" vertex="1" parent="88">
                    <mxGeometry width="140" height="33" as="geometry"/>
                </mxCell>
                <mxCell id="90" value="ID" style="shape=partialRectangle;html=1;whiteSpace=wrap;connectable=0;fillColor=none;top=0;left=0;bottom=0;right=0;overflow=hidden;" vertex="1" parent="89">
                    <mxGeometry width="60" height="33" as="geometry"/>
                </mxCell>
                <mxCell id="91" value="salary" style="shape=partialRectangle;html=1;whiteSpace=wrap;connectable=0;fillColor=none;top=0;left=0;bottom=0;right=0;overflow=hidden;" vertex="1" parent="89">
                    <mxGeometry x="60" width="60" height="33" as="geometry"/>
                </mxCell>
                <mxCell id="92" value="" style="shape=partialRectangle;html=1;whiteSpace=wrap;connectable=0;fillColor=none;top=0;left=0;bottom=0;right=0;overflow=hidden;" vertex="1" parent="89">
                    <mxGeometry x="120" width="20" height="33" as="geometry"/>
                </mxCell>
                <mxCell id="93" value="" style="shape=partialRectangle;html=1;whiteSpace=wrap;collapsible=0;dropTarget=0;pointerEvents=0;fillColor=none;top=0;left=0;bottom=0;right=0;points=[[0,0.5],[1,0.5]];portConstraint=eastwest;" vertex="1" parent="88">
                    <mxGeometry y="33" width="140" height="27" as="geometry"/>
                </mxCell>
                <mxCell id="94" value="01" style="shape=partialRectangle;html=1;whiteSpace=wrap;connectable=0;fillColor=none;top=0;left=0;bottom=0;right=0;overflow=hidden;" vertex="1" parent="93">
                    <mxGeometry width="60" height="27" as="geometry"/>
                </mxCell>
                <mxCell id="95" value="25000" style="shape=partialRectangle;html=1;whiteSpace=wrap;connectable=0;fillColor=none;top=0;left=0;bottom=0;right=0;overflow=hidden;" vertex="1" parent="93">
                    <mxGeometry x="60" width="60" height="27" as="geometry"/>
                </mxCell>
                <mxCell id="96" value="" style="shape=partialRectangle;html=1;whiteSpace=wrap;connectable=0;fillColor=none;top=0;left=0;bottom=0;right=0;overflow=hidden;" vertex="1" parent="93">
                    <mxGeometry x="120" width="20" height="27" as="geometry"/>
                </mxCell>
                <mxCell id="97" value="" style="endArrow=classic;startArrow=classic;html=1;fillColor=#d5e8d4;strokeColor=#82b366;" edge="1" parent="1">
                    <mxGeometry width="50" height="50" relative="1" as="geometry">
                        <mxPoint x="555" y="320" as="sourcePoint"/>
                        <mxPoint x="555" y="160" as="targetPoint"/>
                    </mxGeometry>
                </mxCell>
                <mxCell id="98" value="最大で10秒間まで&lt;br&gt;ロックが解放される&lt;br&gt;のを待機する" style="text;align=left;verticalAlign=middle;resizable=0;points=[];autosize=1;fontColor=#000000;html=1;labelBackgroundColor=#ffffff;labelBorderColor=none;" vertex="1" parent="1">
                    <mxGeometry x="570" y="210" width="120" height="50" as="geometry"/>
                </mxCell>
            </root>
        </mxGraphModel>
    </diagram>
</mxfile>